<?xml version="1.0" encoding="UTF-8"?>
<!DOCTYPE svg PUBLIC "-//W3C//DTD SVG 1.1//EN" "http://www.w3.org/Graphics/SVG/1.1/DTD/svg11.dtd">
<!-- Creator: CorelDRAW -->
<svg xmlns="http://www.w3.org/2000/svg" xml:space="preserve" width="42.3332mm" height="42.3332mm" version="1.1" style="shape-rendering:geometricPrecision; text-rendering:geometricPrecision; image-rendering:optimizeQuality; fill-rule:evenodd; clip-rule:evenodd"
viewBox="0 0 4233.32 4233.32"
 xmlns:xlink="http://www.w3.org/1999/xlink"
 xmlns:xodm="http://www.corel.com/coreldraw/odm/2003">
 <defs>
  <style type="text/css">
   <![CDATA[
    .fil2 {fill:#17191E;fill-rule:nonzero}
    .fil0 {fill:white;fill-rule:nonzero}
    .fil1 {fill:url(#id0);fill-rule:nonzero}
   ]]>
  </style>
  <linearGradient id="id0" gradientUnits="userSpaceOnUse" x1="1352.76" y1="4233.32" x2="3155.31" y2="3323.34">
   <stop offset="0" style="stop-opacity:1; stop-color:#D83333"/>
   <stop offset="1" style="stop-opacity:1; stop-color:#F041FF"/>
  </linearGradient>
 </defs>
 <g id="Camada_x0020_1">
  <metadata id="CorelCorpID_0Corel-Layer"/>
  <g id="_1746817494400">
   <path class="fil0" d="M1530.15 3605.71c-191.25,-174.82 -247.07,-542.15 -167.4,-808.27 138.16,167.79 329.58,220.93 527.86,250.94 306.11,46.3 606.73,28.98 891.1,-110.94 32.52,-16.01 62.59,-37.3 98.13,-58.88 26.68,77.41 33.62,155.56 24.3,235.09 -22.65,193.71 -119.05,343.35 -272.39,456.78 -61.3,45.37 -126.19,85.92 -189.5,128.7 -194.54,131.49 -247.18,285.66 -174.07,509.91 1.74,5.49 3.29,10.95 7.22,24.28 -99.33,-44.47 -171.88,-109.18 -227.17,-194.3 -58.37,-89.79 -86.16,-189.14 -87.62,-296.64 -0.73,-52.32 -0.73,-105.11 -7.76,-156.68 -17.18,-125.74 -76.22,-182.04 -187.41,-185.29 -114.13,-3.32 -204.41,67.23 -228.35,178.35 -1.83,8.51 -4.47,16.94 -7.12,26.86l0.18 0.09z"/>
   <path class="fil1" d="M1530.15 3605.71c-191.25,-174.82 -247.07,-542.15 -167.4,-808.27 138.16,167.79 329.58,220.93 527.86,250.94 306.11,46.3 606.73,28.98 891.1,-110.94 32.52,-16.01 62.59,-37.3 98.13,-58.88 26.68,77.41 33.62,155.56 24.3,235.09 -22.65,193.71 -119.05,343.35 -272.39,456.78 -61.3,45.37 -126.19,85.92 -189.5,128.7 -194.54,131.49 -247.18,285.66 -174.07,509.91 1.74,5.49 3.29,10.95 7.22,24.28 -99.33,-44.47 -171.88,-109.18 -227.17,-194.3 -58.37,-89.79 -86.16,-189.14 -87.62,-296.64 -0.73,-52.32 -0.73,-105.11 -7.76,-156.68 -17.18,-125.74 -76.22,-182.04 -187.41,-185.29 -114.13,-3.32 -204.41,67.23 -228.35,178.35 -1.83,8.51 -4.47,16.94 -7.12,26.86l0.18 0.09z"/>
   <path class="fil2" d="M438.6 2753.1c0,0 566.31,-275.87 1134.21,-275.87l428.17 -1325.12c16.03,-64.09 62.84,-107.63 115.68,-107.63 52.84,0 99.65,43.54 115.68,107.63l428.17 1325.12c672.6,0 1134.21,275.87 1134.21,275.87 0,0 -961.93,-2620.47 -963.8,-2625.73 -27.62,-77.48 -74.23,-127.37 -137.06,-127.37l-1154.29 0c-62.83,0 -107.56,49.89 -137.05,127.37 -2.09,5.16 -963.92,2625.73 -963.92,2625.73z"/>
  </g>
 </g>
</svg>
