<?xml version="1.0" encoding="UTF-8"?>
<!DOCTYPE svg PUBLIC "-//W3C//DTD SVG 1.1//EN" "http://www.w3.org/Graphics/SVG/1.1/DTD/svg11.dtd">
<!-- Creator: CorelDRAW -->
<svg xmlns="http://www.w3.org/2000/svg" xml:space="preserve" width="42.3332mm" height="42.3332mm" version="1.1" style="shape-rendering:geometricPrecision; text-rendering:geometricPrecision; image-rendering:optimizeQuality; fill-rule:evenodd; clip-rule:evenodd"
viewBox="0 0 4233.32 4233.32"
 xmlns:xlink="http://www.w3.org/1999/xlink"
 xmlns:xodm="http://www.corel.com/coreldraw/odm/2003">
 <defs>
  <style type="text/css">
   <![CDATA[
    .fil5 {fill:url(#id0);fill-rule:nonzero}
    .fil8 {fill:url(#id1);fill-rule:nonzero}
    .fil6 {fill:url(#id2);fill-rule:nonzero}
    .fil2 {fill:url(#id3);fill-rule:nonzero}
    .fil1 {fill:url(#id4);fill-rule:nonzero}
    .fil7 {fill:url(#id5);fill-rule:nonzero}
    .fil4 {fill:url(#id6);fill-rule:nonzero}
    .fil0 {fill:url(#id7);fill-rule:nonzero}
    .fil3 {fill:url(#id8);fill-rule:nonzero}
   ]]>
  </style>
  <linearGradient id="id0" gradientUnits="userSpaceOnUse" x1="3270.67" y1="2821.6" x2="3915.77" y2="1283.72">
   <stop offset="0" style="stop-opacity:1; stop-color:#0092FF"/>
   <stop offset="1" style="stop-opacity:1; stop-color:#45B2FF"/>
  </linearGradient>
  <linearGradient id="id1" gradientUnits="userSpaceOnUse" xlink:href="#id0" x1="834.98" y1="2698.02" x2="1732.17" y2="3957.99">
  </linearGradient>
  <linearGradient id="id2" gradientUnits="userSpaceOnUse" x1="706.8" y1="1155.45" x2="322.32" y2="2565.24">
   <stop offset="0" style="stop-opacity:1; stop-color:#1C64F2"/>
   <stop offset="1" style="stop-opacity:1; stop-color:#0092FF"/>
  </linearGradient>
  <linearGradient id="id3" gradientUnits="userSpaceOnUse" xlink:href="#id0" x1="2116.65" y1="728.48" x2="450.55" y2="843.58">
  </linearGradient>
  <linearGradient id="id4" gradientUnits="userSpaceOnUse" xlink:href="#id2" x1="3494.86" y1="1283.62" x2="2493.96" y2="258.26">
  </linearGradient>
  <linearGradient id="id5" gradientUnits="userSpaceOnUse" x1="2629.3" y1="1185.63" x2="1219.51" y2="1434.13">
   <stop offset="0" style="stop-opacity:1; stop-color:#1724C9"/>
   <stop offset="1" style="stop-opacity:1; stop-color:#1C64F2"/>
  </linearGradient>
  <linearGradient id="id6" gradientUnits="userSpaceOnUse" xlink:href="#id5" x1="963.16" y1="2122.73" x2="1988.52" y2="3108.9">
  </linearGradient>
  <linearGradient id="id7" gradientUnits="userSpaceOnUse" xlink:href="#id5" x1="2703.47" y1="3047.82" x2="3067.7" y2="1669.36">
  </linearGradient>
  <linearGradient id="id8" gradientUnits="userSpaceOnUse" xlink:href="#id2" x1="1988.52" y1="3699.31" x2="3398.31" y2="3323.74">
  </linearGradient>
 </defs>
 <g id="Camada_x0020_1">
  <metadata id="CorelCorpID_0Corel-Layer"/>
  <g id="_1747022900432">
   <path class="fil0" d="M3208.57 1724.83c-9.5,65.44 -52.66,154.33 -102.12,231.6 -62.44,97.51 -161.55,165.81 -274.95,189.5l-499.58 104.49c-80.27,16.76 -153.07,58.81 -207.76,119.89l-327.57 366.13c-61.52,68.83 -104.58,52.41 -104.58,-39.87 -0.73,3.39 -162.57,420.76 266.28,668.1 164.8,95.05 401.97,60.9 566.77,-34.15l873.06 -503.6c326.5,-188.34 557.03,-506.94 633.66,-875.72 3.06,-14.58 5.38,-29.26 7.9,-43.84l-831.11 -182.53z"/>
   <path class="fil1" d="M2982.15 1221.76c164.75,95.04 232.09,236.54 232.09,426.63 0,25.82 -2.04,51.3 -5.67,76.39l351.78 151.14 479.33 31.39c61.38,-355.22 -58.9,-720.86 -274.52,-1011.51 -162.28,-218.72 -371.11,-408.51 -622.13,-553.3 -203.94,-117.62 -415.83,-195.12 -628.73,-237.66l-239.2 309.79 -75.57 355.71 782.62 451.42z"/>
   <path class="fil2" d="M166.39 1482.48c-0.1,0.29 0.15,0.33 0.24,0.04 18.46,-55.32 41.61,-117.13 70.53,-183.11 150.95,-344.66 441.79,-574.56 799.68,-691.79 357.83,-117.18 748.56,-76.1 1074.67,112l88.02 50.76 314.77 -665.54c-1001.19,-199.96 -2024.47,388.26 -2346.65,1373.76 -0.15,0.48 -0.73,2.13 -1.26,3.88z"/>
   <path class="fil3" d="M2490.91 3330.47c-164.8,95.05 -367.82,95.05 -532.57,0 -22.38,-12.88 -43.45,-27.41 -63.41,-43.11l-289.78 199.24 -249.76 403.62c277.18,230.73 637.2,304.89 996.97,263.62 270.7,-31.05 539.64,-116.8 790.67,-261.59 203.94,-117.61 377.07,-262.21 520.36,-425.17l-148.91 -361.86 -240.95 -226.17 -782.62 451.42z"/>
   <path class="fil4" d="M1894.93 3287.36c-126.97,-99.98 -202.87,-253.35 -202.87,-417.66l0 -16.38 0 -1368.23c0,-77.36 22.76,-90.49 89.86,-51.83 -103.33,-59.58 -341.95,-264.15 -636.62,-94.17 -164.8,95.04 -300.49,304.84 -300.49,494.93l0 1007.19c0,376.64 195.13,769.55 476.48,1020.28 11.14,9.88 22.67,19.23 34.1,28.73l539.54 -602.86z"/>
   <path class="fil5" d="M3643.19 746.84c-0.2,-0.19 -0.39,-0.05 -0.2,0.19 38.76,43.65 80.75,94.56 123.48,152.55 223.36,302.95 306.78,686.66 229.47,1054.86 -77.32,368.21 -308.28,685.74 -634.44,873.84l-87.97 50.77 389.9 588.03c673.92,-766.25 675.67,-1945.71 -17.53,-2717.19 -0.34,-0.38 -1.45,-1.69 -2.71,-3.05z"/>
   <path class="fil6" d="M879.01 1833.97c0,-190.09 101.49,-365.74 266.29,-460.78 22.33,-12.88 45.48,-23.88 69.03,-33.28l-27.81 -350.33 -195.36 -400.85c-338.61,124.49 -612.5,381.81 -756.61,713.69 -108.46,249.76 -168.58,525.35 -168.58,814.93 0,235.23 38.75,457.34 108.36,662.83l388.12 52.07 316.56 -95.43 0 -902.85 0 0z"/>
   <path class="fil7" d="M1214.33 1339.91c150.16,-59.82 321.12,-48.83 463.48,33.28l14.25 8.19 1140.07 657.64c79.98,46.12 72.71,91.51 -17.68,110.45l65.78 -13.76c86.57,-18.12 165.62,-62.34 226.08,-126.82 103.95,-110.79 142.13,-244.48 142.13,-360.5 0,-190.09 -101.49,-365.74 -266.29,-460.78l-873.06 -503.6c-326.5,-188.34 -717.95,-228.5 -1075.98,-110.4 -14.15,4.7 -28,9.98 -41.95,15.12l223.17 751.18z"/>
   <path class="fil8" d="M2542.45 4122.79c0.29,-0.05 0.24,-0.29 -0.05,-0.25 -57.21,11.73 -122.36,22.58 -194.01,30.57 -374.26,41.76 -748.57,-77.89 -1029.09,-328.92 -280.53,-250.97 -440.29,-609.59 -440.29,-985.83l0 -101.49 -704.68 43.31c327.28,966.21 1348.76,1557.44 2364.15,1343.48 0.48,-0.15 2.18,-0.49 3.97,-0.87z"/>
  </g>
 </g>
</svg>
