<?xml version="1.0" encoding="UTF-8"?>
<!DOCTYPE svg PUBLIC "-//W3C//DTD SVG 1.1//EN" "http://www.w3.org/Graphics/SVG/1.1/DTD/svg11.dtd">
<!-- Creator: CorelDRAW -->
<svg xmlns="http://www.w3.org/2000/svg" xml:space="preserve" width="42.3332mm" height="42.3332mm" version="1.1" style="shape-rendering:geometricPrecision; text-rendering:geometricPrecision; image-rendering:optimizeQuality; fill-rule:evenodd; clip-rule:evenodd"
viewBox="0 0 4233.32 4233.32"
 xmlns:xlink="http://www.w3.org/1999/xlink"
 xmlns:xodm="http://www.corel.com/coreldraw/odm/2003">
 <defs>
  <style type="text/css">
   <![CDATA[
    .fil0 {fill:#61DAFB;fill-rule:nonzero}
   ]]>
  </style>
 </defs>
 <g id="Camada_x0020_1">
  <metadata id="CorelCorpID_0Corel-Layer"/>
  <g id="_1746806495824">
   <g>
    <path class="fil0" d="M4233.32 2117.09c0,-280.44 -351.19,-546.21 -889.63,-711.02 124.25,-548.8 69.03,-985.42 -174.31,-1125.21 -56.09,-32.79 -121.66,-48.32 -193.28,-48.32l0 192.43c39.69,0 71.62,7.76 98.36,22.43 117.36,67.31 168.27,323.59 128.57,653.21 -9.49,81.11 -25.02,166.54 -44,253.69 -169.13,-41.42 -353.79,-73.35 -547.94,-94.06 -116.49,-159.63 -237.29,-304.6 -358.96,-431.44 281.3,-261.46 545.35,-404.7 724.83,-404.7l0 -192.42c-237.3,0 -547.94,169.13 -862.03,462.51 -314.09,-291.66 -624.73,-459.06 -862.02,-459.06l0 192.43c178.62,0 443.52,142.37 724.82,402.1 -120.8,126.85 -241.6,270.95 -356.37,430.58 -195.01,20.71 -379.67,52.64 -548.8,94.92 -19.84,-86.29 -34.51,-169.99 -44.87,-250.24 -40.55,-329.62 9.5,-585.9 125.99,-654.07 25.88,-15.53 59.54,-22.43 99.23,-22.43l0 -192.43c-72.48,0 -138.06,15.54 -195.01,48.33 -242.48,139.78 -296.84,575.54 -171.72,1122.61 -536.72,165.68 -886.19,430.59 -886.19,710.16 0,280.44 351.2,546.21 889.64,711.02 -124.25,548.8 -69.03,985.42 174.31,1125.21 56.08,32.79 121.66,48.32 194.15,48.32 237.29,0 547.93,-169.13 862.02,-462.51 314.09,291.66 624.73,459.06 862.03,459.06 72.48,0 138.06,-15.53 195.01,-48.32 242.47,-139.79 296.83,-575.55 171.71,-1122.62 535,-164.81 884.46,-430.58 884.46,-710.16l0 0zm-1123.48 -575.55c-31.92,111.32 -71.62,226.08 -116.49,340.85 -35.38,-69.04 -72.48,-138.07 -113.04,-207.1 -39.69,-69.03 -81.97,-136.33 -124.25,-201.91 122.53,18.12 240.74,40.55 353.78,68.16zm-395.2 918.98c-67.3,116.49 -136.34,226.94 -207.96,329.62 -128.57,11.22 -258.86,17.26 -390.02,17.26 -130.3,0 -260.59,-6.04 -388.3,-16.39 -71.62,-102.69 -141.51,-212.27 -208.82,-327.9 -65.58,-113.04 -125.12,-227.8 -179.48,-343.43 53.5,-115.63 113.9,-231.25 178.62,-344.29 67.3,-116.49 136.33,-226.94 207.95,-329.63 128.57,-11.21 258.87,-17.25 390.03,-17.25 130.3,0 260.59,6.04 388.3,16.39 71.62,102.68 141.51,212.27 208.82,327.9 65.58,113.04 125.12,227.8 179.48,343.43 -54.36,115.63 -113.9,231.25 -178.62,344.29zm278.71 -112.17c46.6,115.62 86.29,231.25 119.08,343.42 -113.04,27.62 -232.12,50.92 -355.51,69.04 42.28,-66.45 84.57,-134.61 124.26,-204.51 39.69,-69.03 76.8,-138.92 112.17,-207.95l0 0zm-874.97 920.7c-80.24,-82.84 -160.49,-175.17 -239.88,-276.13 77.66,3.45 157.05,6.04 237.3,6.04 81.11,0 161.36,-1.72 239.88,-6.04 -77.66,100.96 -157.91,193.29 -237.3,276.13zm-641.98 -508.24c-122.53,-18.12 -240.75,-40.56 -353.79,-68.17 31.93,-111.32 71.62,-226.08 116.49,-340.84 35.38,69.03 72.48,138.06 113.04,207.09 40.56,69.03 81.97,136.34 124.26,201.92zm637.67 -1795.68c80.25,82.84 160.5,175.17 239.88,276.13 -77.66,-3.45 -157.04,-6.04 -237.29,-6.04 -81.11,0 -161.36,1.72 -239.88,6.04 77.66,-100.96 157.9,-193.29 237.29,-276.13zm-638.54 508.25c-42.28,66.44 -84.56,134.61 -124.25,204.5 -39.7,69.03 -76.8,138.06 -112.18,207.09 -46.6,-115.62 -86.29,-231.25 -119.08,-343.43 113.04,-26.74 232.12,-50.04 355.51,-68.16l0 0zm-780.91 1080.33c-305.46,-130.29 -503.07,-301.15 -503.07,-436.62 0,-135.47 197.61,-307.19 503.07,-436.62 74.21,-31.93 155.32,-60.4 239.02,-87.15 49.18,169.12 113.9,345.15 194.15,525.5 -79.39,179.48 -143.24,354.64 -191.56,522.91 -85.43,-26.75 -166.54,-56.09 -241.61,-88.02l0 0zm464.23 1233.07c-117.35,-67.3 -168.26,-323.58 -128.57,-653.21 9.49,-81.11 25.03,-166.53 44.01,-253.69 169.13,41.42 353.78,73.35 547.93,94.06 116.49,159.63 237.3,304.6 358.96,431.44 -281.3,261.46 -545.34,404.7 -724.82,404.7 -38.83,-0.86 -71.62,-8.63 -97.51,-23.3l0 0zm2046.77 -657.52c40.56,329.62 -9.49,585.9 -125.98,654.07 -25.88,15.53 -59.54,22.43 -99.23,22.43 -178.62,0 -443.53,-142.37 -724.83,-402.1 120.81,-126.85 241.61,-270.95 356.38,-430.58 195.01,-20.71 379.67,-52.64 548.79,-94.92 19.85,87.15 35.38,170.85 44.87,251.1l0 0zm332.22 -575.55c-74.21,31.93 -155.32,60.41 -239.02,87.15 -49.19,-169.12 -113.91,-345.15 -194.15,-525.49 79.38,-179.49 143.24,-354.65 191.56,-522.92 85.42,26.75 166.54,56.09 242.47,88.02 305.46,130.3 503.06,301.15 503.06,436.62 -0.86,135.47 -198.46,307.19 -503.92,436.62l0 0z"/>
    <circle class="fil0" cx="2115.8" cy="2117.09" r="394.34"/>
   </g>
  </g>
 </g>
</svg>
