<?xml version="1.0" encoding="UTF-8"?>
<!DOCTYPE svg PUBLIC "-//W3C//DTD SVG 1.1//EN" "http://www.w3.org/Graphics/SVG/1.1/DTD/svg11.dtd">
<!-- Creator: CorelDRAW -->
<svg xmlns="http://www.w3.org/2000/svg" xml:space="preserve" width="42.3332mm" height="42.3332mm" version="1.1" style="shape-rendering:geometricPrecision; text-rendering:geometricPrecision; image-rendering:optimizeQuality; fill-rule:evenodd; clip-rule:evenodd"
viewBox="0 0 4233.32 4233.32"
 xmlns:xlink="http://www.w3.org/1999/xlink"
 xmlns:xodm="http://www.corel.com/coreldraw/odm/2003">
 <defs>
  <style type="text/css">
   <![CDATA[
    .fil0 {fill:#0080FF;fill-rule:nonzero}
   ]]>
  </style>
 </defs>
 <g id="Camada_x0020_1">
  <metadata id="CorelCorpID_0Corel-Layer"/>
  <path class="fil0" d="M3191.93 372.22c584.29,360.93 973.66,1007.21 973.66,1744.43 0,1131.6 -917.34,2048.94 -2048.94,2048.94 -246.76,0 -483.34,-43.64 -702.37,-123.65l-23.39 -8.72 38.1 -12.23 48.98 -16.07 24.16 -8.07 0 0 23.95 -8.11 47.25 -16.27 46.39 -16.38 45.52 -16.5 44.66 -16.6 22 -8.33 43.37 -16.77c45.78,-17.95 90.09,-36.09 132.94,-54.42l31.85 -13.78 39.04 -17.34c17.16,-7.72 34.06,-15.49 50.71,-23.29l24.78 -11.73 36.45 -17.69 17.91 -8.88 0 0 17.69 -8.93 34.72 -17.92c291.5,-152.92 489.57,-319.02 594.72,-501.15 222.79,-385.89 28.21,-798.28 -530.36,-1218.7l-45.46 -34.07 -27.61 -21.19 -26.81 -21 -26.01 -20.86 -25.21 -20.69 -12.31 -10.29 0 0 -12.1 -10.25 -23.63 -20.37 -17.19 -15.19 0 0 -16.76 -15.09 -21.65 -19.99 -20.87 -19.83 -20.09 -19.67 -9.75 -9.78 0 0 -9.56 -9.74 -18.53 -19.37c-220.8,-234.73 -270.11,-435.67 -169.88,-609.31 51.03,-88.36 139.48,-175.24 265.22,-259.87l15.26 -10.14 24.04 -15.46c10.88,-6.87 22,-13.72 33.36,-20.55l17.25 -10.23 26.54 -15.31 27.39 -15.26 21.09 -11.39 0 0 21.56 -11.38 29.47 -15.11c22.42,-11.3 45.55,-22.57 69.38,-33.77l24.07 -11.2 32.82 -14.85 16.72 -7.41 34.07 -14.77 17.34 -7.36 35.32 -14.66 17.98 -7.31 36.57 -14.57 18.59 -7.26 37.83 -14.47 38.65 -14.39 19.63 -7.18 39.91 -14.27 40.74 -14.22 41.56 -14.15 21.11 -7.04 42.82 -14.02 43.64 -13.95 44.48 -13.87 45.32 -13.79 46.15 -13.71 58.84 -17.04 60.15 -16.89 73.89 -20.11 30.87 -8.19zm-1075.28 -304.49c249.18,0 487.96,44.48 708.84,125.93l23.6 8.87 -14.96 4.52 -72.97 22.5 -23.9 7.56 -47.15 15.2 -46.29 15.32 -45.43 15.44 -44.57 15.56 -43.71 15.68 -21.54 7.89 -52.89 19.85 -51.56 20.05 -40.28 16.18 -19.81 8.13 -38.99 16.37c-398.49,169.82 -659.64,360.23 -784.54,576.54 -217.97,377.54 -20.27,784.52 538.38,1204.83l45.44 34.08 27.61 21.19 26.79 21.04 13.1 10.46 25.59 20.81 18.66 15.51 0 0 18.22 15.43 23.58 20.43 11.5 10.18 22.38 20.22c12.22,11.18 24.08,22.31 35.57,33.37l16.96 16.53 24.41 24.62 23.21 24.4c219.86,236.36 266.85,441.32 162.38,622.27 -67.61,117.11 -196.68,232.37 -386.92,344.27l-17.47 10.16 -28.3 16.04 -29.15 15.98c-16.42,8.87 -33.24,17.71 -50.44,26.54l-26.1 13.21 -32.1 15.81 -32.94 15.76 -33.77 15.7 -17.21 7.83 -35.04 15.62 -35.88 15.56 -36.72 15.51 -18.67 7.74 -37.98 15.41 -19.31 7.69 0 0 -19.52 7.67 -39.66 15.3 -40.5 15.24 -41.35 15.17 -42.18 15.11 -43.01 15.04 -21.83 7.51 -44.27 14.94 -22.46 7.44 -45.55 14.85 -46.36 14.77 -59.16 18.38 -60.45 18.26 -49.31 14.52 -68.82 19.8c-590.1,-359.66 -984.12,-1009.25 -984.12,-1750.87 0,-1131.58 917.34,-2048.92 2048.92,-2048.92z"/>
 </g>
</svg>
