<?xml version="1.0" encoding="UTF-8"?>
<!DOCTYPE svg PUBLIC "-//W3C//DTD SVG 1.1//EN" "http://www.w3.org/Graphics/SVG/1.1/DTD/svg11.dtd">
<!-- Creator: CorelDRAW -->
<svg xmlns="http://www.w3.org/2000/svg" xml:space="preserve" width="42.3332mm" height="42.3332mm" version="1.1" style="shape-rendering:geometricPrecision; text-rendering:geometricPrecision; image-rendering:optimizeQuality; fill-rule:evenodd; clip-rule:evenodd"
viewBox="0 0 4233.32 4233.32"
 xmlns:xlink="http://www.w3.org/1999/xlink"
 xmlns:xodm="http://www.corel.com/coreldraw/odm/2003">
 <defs>
  <style type="text/css">
   <![CDATA[
    .fil0 {fill:url(#id0);fill-rule:nonzero}
   ]]>
  </style>
  <linearGradient id="id0" gradientUnits="userSpaceOnUse" x1="1286.79" y1="15.6" x2="2874.29" y2="3431.09">
   <stop offset="0" style="stop-opacity:1; stop-color:#62BAF3"/>
   <stop offset="1" style="stop-opacity:1; stop-color:#1A92E0"/>
  </linearGradient>
 </defs>
 <g id="Camada_x0020_1">
  <metadata id="CorelCorpID_0Corel-Layer"/>
  <path class="fil0" d="M228.46 2994.82l0 -1756.33c0,-112.93 85.76,-261.53 183.6,-318l1520.99 -878.16c94.87,-54.77 266.5,-58.1 367.2,0l455.17 262.8c-42.07,10.36 -85.87,27.2 -120.9,47.43l-1521 878.13c-188.1,108.57 -265.7,338.5 -265.7,460.2l0 878.17c0,157.1 106.57,341.7 242.64,420.23 0.26,0.17 0.56,0.3 0.83,0.43 0.43,0.27 0.83,0.57 1.27,0.8 134.86,77.8 346.13,77.9 481.06,-0.03l762.6 -440.3c149,-86 265.7,-288.13 265.7,-460.17l0 -624.26 137.8 -79.57c85.3,-49.26 234.8,-49.33 320.43,-0.26 83.87,49.43 158.67,176.8 159,273.76l0 883c0.37,112.83 -83.73,261.3 -181.46,317.73l-1521 878.13c-97.8,56.5 -269.93,56.14 -367.17,0.04l-737.46 -425.77c-97.84,-56.46 -183.6,-205.06 -183.6,-318zm3776.39 0c0,112.94 -85.77,261.54 -183.57,318l-1521.03 878.13c-97.8,56.5 -269.36,56.47 -367.2,0l-455.13 -262.8c69.44,-17.06 115.34,-44.2 120.87,-47.4l1521 -878.16c188.09,-108.53 265.69,-338.47 265.69,-460.17l0 -878.16c0,-157.1 -106.56,-341.7 -242.63,-420.23 -0.33,-0.24 -0.73,-0.4 -1.06,-0.6 -0.34,-0.2 -0.67,-0.44 -1,-0.64 -134.9,-77.83 -346.17,-77.86 -481.1,0.04l-762.6 440.3c-148.97,86 -265.7,288.13 -265.7,460.16l0 624.27 -137.8 79.53c-85.33,49.3 -234.83,49.37 -320.43,0.3 -83.87,-49.43 -158.67,-176.8 -159,-273.77l0 -882.99c-0.34,-112.84 83.73,-261.3 181.46,-317.77l1521 -878.1c98.03,-56.63 270.13,-56.03 367.17,-0.07l737.49 425.8c97.8,56.47 183.57,205.07 183.57,318l0 1756.33 0 0z"/>
 </g>
</svg>
